<?xml version="1.0" standalone="no"?>
<!DOCTYPE svg PUBLIC "-//W3C//DTD SVG 20010904//EN"
 "http://www.w3.org/TR/2001/REC-SVG-20010904/DTD/svg10.dtd">
<svg version="1.0" xmlns="http://www.w3.org/2000/svg"
 width="220.000000pt" height="220.000000pt" viewBox="0 0 220.000000 220.000000"
 preserveAspectRatio="xMidYMid meet">

<g transform="translate(0.000000,220.000000) scale(0.100000,-0.100000)"
fill="#000000" stroke="none">
<path d="M471 2060 c-48 -11 -91 -58 -98 -106 -4 -33 -1 -45 22 -73 20 -23 35
-31 52 -29 34 4 29 23 -7 23 -37 0 -50 17 -50 66 0 73 76 121 158 99 87 -23
127 -122 87 -218 -20 -46 -48 -77 -104 -113 l-44 -28 -27 42 c-64 101 -164
153 -275 144 -90 -7 -139 -49 -143 -124 -4 -69 94 -133 202 -133 36 0 134 18
191 35 17 5 24 -4 47 -63 15 -38 37 -108 49 -156 12 -47 25 -86 30 -86 8 0 55
142 79 239 6 23 14 41 16 38 3 -3 25 -64 48 -136 24 -73 46 -134 49 -137 11
-12 39 61 72 192 35 136 43 208 25 219 -16 10 -34 -5 -21 -18 18 -18 12 -76
-19 -196 -17 -63 -32 -116 -34 -118 -4 -5 -17 33 -66 194 -17 56 -35 105 -40
108 -6 3 -10 4 -10 1 0 -7 -70 -269 -76 -286 -3 -8 -18 25 -33 75 -15 50 -32
100 -39 112 -18 33 -16 38 42 76 66 44 101 88 117 148 35 132 -68 240 -200
209z m-190 -241 c19 -7 49 -23 67 -36 32 -24 92 -98 92 -113 0 -15 -120 -40
-194 -40 -89 0 -145 22 -164 65 -35 78 10 135 107 135 32 0 73 -5 92 -11z"/>
<path d="M1837 1858 c-52 -14 -112 -73 -127 -125 -11 -37 -11 -49 5 -89 22
-57 62 -84 126 -84 52 0 94 26 110 68 12 30 3 62 -17 62 -16 0 -19 -26 -4 -35
17 -10 11 -25 -19 -56 -22 -22 -39 -29 -68 -29 -128 0 -169 154 -64 243 70 58
207 56 276 -4 83 -74 69 -226 -31 -323 -42 -41 -62 -47 -39 -12 19 29 10 54
-22 62 -78 20 -138 -112 -78 -171 28 -29 76 -33 99 -9 22 22 20 41 -2 21 -25
-22 -49 -21 -62 2 -16 31 -12 38 24 45 47 9 128 84 160 148 89 179 -62 340
-267 286z m143 -360 c0 -22 -43 -68 -63 -68 -20 0 -5 70 18 87 22 15 45 6 45
-19z"/>
<path d="M1046 1737 c-19 -28 -34 -132 -37 -253 -2 -73 1 -97 14 -118 24 -36
63 -35 85 3 l16 29 27 -29 c36 -39 86 -40 123 -3 35 36 34 55 -2 21 -52 -50
-95 -28 -95 46 0 57 17 87 50 87 20 0 24 -4 20 -20 -6 -24 12 -38 23 -19 11
17 -5 46 -31 54 -45 15 -109 -39 -109 -90 0 -27 -33 -75 -51 -75 -12 0 -19 12
-23 45 -6 37 -2 55 24 112 41 87 58 173 42 208 -15 33 -56 34 -76 2z m63 -10
c12 -31 -3 -107 -33 -171 l-24 -51 -1 45 c-1 42 14 160 24 188 7 19 25 14 34
-11z"/>
<path d="M900 1526 c-89 -29 -77 -186 14 -186 34 0 86 32 86 52 0 7 -10 2 -23
-10 -26 -24 -57 -28 -75 -10 -17 17 -15 48 3 48 25 0 65 46 65 74 0 34 -26 47
-70 32z m58 -28 c4 -20 -40 -68 -61 -68 -12 0 -13 8 -7 34 4 18 11 39 15 45
10 17 49 9 53 -11z"/>
<path d="M1345 1518 c-35 -30 -49 -92 -29 -129 30 -59 86 -65 133 -14 17 19
38 35 46 35 10 0 15 -11 15 -35 0 -60 32 -39 45 30 9 51 30 92 54 105 28 15
34 0 34 -91 0 -44 4 -79 8 -79 14 0 39 44 39 70 0 33 42 105 60 105 12 0 18
-24 26 -105 6 -58 14 -114 18 -126 6 -19 -1 -23 -66 -43 -185 -56 -399 -67
-456 -24 -22 17 -27 28 -25 58 2 25 -1 35 -10 32 -38 -12 -10 -86 45 -117 83
-46 232 -36 433 31 l90 30 15 -23 c44 -69 111 -108 185 -108 63 0 101 22 115
65 14 43 -2 75 -51 100 -34 18 -145 21 -198 6 -19 -6 -36 -9 -38 -7 -7 7 -23
131 -23 182 0 86 -54 102 -100 30 l-25 -39 -3 31 c-7 65 -63 67 -108 4 l-26
-37 6 44 c6 37 4 43 -10 37 -8 -3 -18 -6 -20 -6 -2 0 -4 -19 -4 -43 0 -73 -44
-94 -55 -27 -7 42 -43 80 -76 80 -10 0 -30 -10 -44 -22z m91 -23 c16 -24 16
-27 -2 -39 -18 -14 -18 -15 0 -35 18 -20 18 -22 1 -41 -10 -11 -28 -20 -41
-20 -19 0 -25 8 -34 41 -25 90 33 160 76 94z m630 -221 c36 -17 50 -48 40 -87
-11 -44 -93 -61 -159 -34 -32 14 -107 88 -107 106 0 28 175 39 226 15z"/>
<path d="M274 806 c-104 -48 -174 -143 -174 -236 0 -74 49 -121 105 -100 35
13 41 35 16 66 -50 64 -1 192 93 241 30 15 76 10 76 -8 0 -7 -18 -71 -41 -143
-23 -74 -43 -162 -46 -201 -5 -62 -3 -73 17 -97 25 -33 65 -37 80 -9 5 11 10
40 10 65 0 44 24 114 54 151 14 19 15 15 9 -45 -7 -83 9 -147 42 -162 34 -15
51 2 60 59 10 65 39 140 92 234 25 45 47 98 50 118 4 32 1 41 -22 59 -33 26
-53 27 -83 6 -32 -22 -29 -52 6 -56 25 -3 27 -7 26 -43 0 -40 -91 -265 -106
-265 -13 0 -9 94 7 145 8 27 12 52 9 57 -16 26 -71 -11 -128 -87 -21 -28 -20
-20 15 104 25 92 28 114 18 133 -17 33 -28 38 -84 38 -32 0 -69 -9 -101 -24z"/>
<path d="M934 800 c-6 -6 -9 -32 -7 -58 4 -37 -3 -69 -32 -147 -45 -125 -55
-141 -110 -167 -36 -18 -46 -19 -59 -8 -21 16 -20 29 2 36 76 25 102 53 102
112 0 37 -17 52 -59 52 -76 0 -141 -78 -141 -169 0 -117 92 -146 187 -59 l21
20 16 -31 c22 -42 53 -40 96 4 l34 35 24 -30 c17 -21 32 -30 53 -30 33 0 79
20 98 44 19 22 30 20 41 -9 35 -92 156 -16 196 123 14 47 14 61 3 96 -19 58
-19 59 29 73 55 16 60 5 32 -68 -36 -91 -62 -216 -50 -239 26 -48 80 -45 80 5
0 28 19 84 37 110 13 18 14 12 8 -53 -8 -80 1 -102 40 -102 18 0 24 7 30 38 7
40 43 128 49 121 2 -2 -1 -30 -6 -62 -13 -77 -1 -107 43 -107 17 0 44 9 59 20
l28 20 30 -30 c40 -40 89 -40 157 -1 91 53 151 137 173 246 26 124 -46 215
-169 215 -105 0 -180 -76 -149 -150 21 -50 80 -54 80 -5 0 56 84 73 130 27 57
-58 48 -157 -22 -237 -45 -51 -107 -77 -133 -55 -23 19 -18 40 10 40 38 0 75
21 91 51 19 38 18 55 -6 79 -43 43 -124 11 -161 -62 -26 -52 -57 -88 -77 -88
-23 0 -9 83 23 131 27 41 27 42 7 61 -23 24 -48 19 -94 -20 -30 -25 -31 -25
-19 -3 15 26 8 37 -30 46 -21 5 -35 0 -65 -27 -21 -18 -35 -26 -32 -18 4 8 18
43 32 77 20 48 24 68 16 87 -15 40 -44 41 -111 6 -46 -23 -71 -31 -102 -28
-53 3 -61 -21 -22 -62 34 -36 43 -95 21 -142 -27 -55 -86 -76 -86 -30 0 29 38
81 65 88 27 7 30 15 15 45 -15 27 -64 25 -90 -3 -11 -12 -34 -51 -50 -85 -20
-42 -39 -67 -59 -78 -59 -30 -96 -12 -85 43 7 33 45 82 64 82 15 0 12 -36 -5
-50 -21 -17 -19 -30 5 -30 12 0 32 11 46 25 34 34 31 93 -7 114 -53 29 -123
-16 -160 -103 -20 -51 -61 -87 -78 -71 -3 4 9 48 27 98 19 51 41 120 50 154
15 59 15 63 -3 83 -20 22 -55 26 -71 10z m-154 -259 c0 -5 -12 -19 -27 -31
-32 -25 -45 -10 -17 21 18 20 44 26 44 10z m1150 -56 c0 -17 -46 -42 -57 -31
-7 7 34 45 50 46 4 0 7 -7 7 -15z"/>
</g>
</svg>
